<svg width="100%" viewBox="0 0 680 640" role="img" xmlns="http://www.w3.org/2000/svg">
<title>Estrutura de diretórios — Atlas Social de Hortolândia</title>
<desc>Separação entre camada de dados (varia por competência) e notebooks (fixos, parametrizados)</desc>

<style>
  text { font-family: sans-serif; fill: #1a1a1a; }
  .th { font-size: 14px; font-weight: 600; }
  .ts { font-size: 12px; font-weight: 400; fill: #444; }
  .box-teal rect { fill: #e1f5ee; stroke: #0f6e56; }
  .box-teal text { fill: #085041; }
  .box-purple rect { fill: #eeedfe; stroke: #534ab7; }
  .box-purple text { fill: #3c3489; }
  .box-amber rect { fill: #faeeda; stroke: #854f0b; }
  .box-amber text { fill: #633806; }
  .box-neutral rect { fill: #f4f4f2; stroke: #b4b2a9; }
  .box-neutral text { fill: #444; }
  .box-dashed rect { fill: none; stroke: #b4b2a9; stroke-dasharray: 4 2; }
  .connector { stroke: #888; stroke-width: 1; fill: none; }
  .rule-line { stroke: #ccc; stroke-width: 0.5; }
  .divider { stroke: #ccc; stroke-width: 0.5; stroke-dasharray: 4 3; }
  .arrow-label { font-size: 11px; fill: #888; font-style: italic; }
</style>

<!-- Divisor central -->
<line class="divider" x1="340" y1="0" x2="340" y2="640"/>

<!-- Cabeçalhos -->
<text class="th" x="170" y="18" text-anchor="middle">dados/  — varia por competência</text>
<text class="th" x="510" y="18" text-anchor="middle">notebooks/  — fixo, parametrizado</text>

<!-- ══ ESQUERDA: dados/ ══ -->

<!-- cadunico/ -->
<g class="box-teal">
  <rect x="20" y="28" width="300" height="32" rx="6" stroke-width="0.5"/>
  <text class="th" x="170" y="49" text-anchor="middle">cadunico/</text>
</g>
<line class="connector" x1="60" y1="60" x2="60" y2="76"/>

<!-- 01_bruto -->
<g class="box-teal">
  <rect x="40" y="76" width="260" height="26" rx="4" stroke-width="0.5"/>
  <text class="ts" x="170" y="93" text-anchor="middle">01_bruto/</text>
</g>
<line class="connector" x1="80" y1="102" x2="80" y2="114"/>
<g class="box-neutral">
  <rect x="60" y="114" width="90" height="22" rx="3" stroke-width="0.5"/>
  <text class="ts" x="105" y="129" text-anchor="middle">2025_12/</text>
</g>
<g class="box-dashed">
  <rect x="160" y="114" width="90" height="22" rx="3" stroke-width="0.5"/>
  <text class="ts" x="205" y="129" text-anchor="middle" fill="#888">2026_03/ …</text>
</g>

<!-- 02_limpo -->
<line class="connector" x1="60" y1="102" x2="60" y2="148"/>
<g class="box-teal">
  <rect x="40" y="148" width="260" height="26" rx="4" stroke-width="0.5"/>
  <text class="ts" x="170" y="165" text-anchor="middle">02_limpo/</text>
</g>
<line class="connector" x1="80" y1="174" x2="80" y2="186"/>
<g class="box-neutral">
  <rect x="60" y="186" width="90" height="22" rx="3" stroke-width="0.5"/>
  <text class="ts" x="105" y="201" text-anchor="middle">2025_12/</text>
</g>
<g class="box-dashed">
  <rect x="160" y="186" width="90" height="22" rx="3" stroke-width="0.5"/>
  <text class="ts" x="205" y="201" text-anchor="middle" fill="#888">2026_03/ …</text>
</g>

<!-- 03_curado / 04_exportacao -->
<line class="connector" x1="60" y1="174" x2="60" y2="220"/>
<g class="box-teal">
  <rect x="40" y="220" width="118" height="26" rx="4" stroke-width="0.5"/>
  <text class="ts" x="99" y="237" text-anchor="middle">03_curado/</text>
</g>
<g class="box-teal">
  <rect x="170" y="220" width="130" height="26" rx="4" stroke-width="0.5"/>
  <text class="ts" x="235" y="237" text-anchor="middle">04_exportacao/</text>
</g>

<!-- bd_externos/ -->
<g class="box-teal">
  <rect x="20" y="264" width="300" height="32" rx="6" stroke-width="0.5"/>
  <text class="th" x="170" y="285" text-anchor="middle">bd_externos/</text>
</g>
<line class="connector" x1="60" y1="296" x2="60" y2="312"/>

<!-- series_jornalisticas -->
<g class="box-purple">
  <rect x="40" y="312" width="260" height="26" rx="4" stroke-width="0.5"/>
  <text class="ts" x="170" y="329" text-anchor="middle">series_jornalisticas/</text>
</g>
<line class="connector" x1="80" y1="338" x2="80" y2="350"/>
<g class="box-neutral">
  <rect x="60" y="350" width="110" height="22" rx="3" stroke-width="0.5"/>
  <text class="ts" x="115" y="365" text-anchor="middle">2026_01_03.csv</text>
</g>
<g class="box-neutral">
  <rect x="180" y="350" width="110" height="22" rx="3" stroke-width="0.5"/>
  <text class="ts" x="235" y="365" text-anchor="middle">2026_05_10.csv …</text>
</g>

<!-- caged / ibge / sigas -->
<line class="connector" x1="60" y1="338" x2="60" y2="384"/>
<g class="box-amber">
  <rect x="40" y="384" width="78" height="24" rx="4" stroke-width="0.5"/>
  <text class="ts" x="79" y="400" text-anchor="middle">caged/</text>
</g>
<g class="box-amber">
  <rect x="128" y="384" width="60" height="24" rx="4" stroke-width="0.5"/>
  <text class="ts" x="158" y="400" text-anchor="middle">ibge/</text>
</g>
<g class="box-amber">
  <rect x="198" y="384" width="100" height="24" rx="4" stroke-width="0.5"/>
  <text class="ts" x="248" y="400" text-anchor="middle">sigas/ …</text>
</g>

<!-- ══ DIREITA: notebooks/ ══ -->

<!-- cadunico/ -->
<g class="box-teal">
  <rect x="360" y="28" width="300" height="32" rx="6" stroke-width="0.5"/>
  <text class="th" x="510" y="49" text-anchor="middle">cadunico/</text>
</g>
<line class="connector" x1="400" y1="60" x2="400" y2="76"/>
<g class="box-neutral">
  <rect x="380" y="76" width="260" height="22" rx="3" stroke-width="0.5"/>
  <text class="ts" x="510" y="91" text-anchor="middle">02_tratamento_cadunico_v03.ipynb</text>
</g>
<g class="box-neutral">
  <rect x="380" y="104" width="260" height="22" rx="3" stroke-width="0.5"/>
  <text class="ts" x="510" y="119" text-anchor="middle">03_analise_variaveis.ipynb</text>
</g>
<g class="box-neutral">
  <rect x="380" y="132" width="260" height="22" rx="3" stroke-width="0.5"/>
  <text class="ts" x="510" y="147" text-anchor="middle">04_analise_temporal.ipynb</text>
</g>
<g class="box-neutral">
  <rect x="380" y="160" width="260" height="22" rx="3" stroke-width="0.5"/>
  <text class="ts" x="510" y="175" text-anchor="middle">05_calculo_ivsh_v02.ipynb</text>
</g>
<g class="box-neutral">
  <rect x="380" y="188" width="260" height="22" rx="3" stroke-width="0.5"/>
  <text class="ts" x="510" y="203" text-anchor="middle">06_perfis_vulnerabilidade.ipynb</text>
</g>
<g class="box-dashed">
  <rect x="380" y="220" width="260" height="24" rx="4" stroke-width="0.5"/>
  <text class="ts" x="510" y="236" text-anchor="middle" fill="#888" font-style="italic">COMPETENCIA = "2025_12"</text>
</g>

<!-- Seta lê cadunico -->
<line x1="322" y1="152" x2="378" y2="152" stroke="#aaa" stroke-width="1" stroke-dasharray="3 2" marker-end="url(#arr)"/>
<text class="arrow-label" x="350" y="147" text-anchor="middle">lê</text>
<defs>
  <marker id="arr" viewBox="0 0 10 10" refX="8" refY="5" markerWidth="5" markerHeight="5" orient="auto-start-reverse">
    <path d="M2 1L8 5L2 9" fill="none" stroke="#aaa" stroke-width="1.5" stroke-linecap="round" stroke-linejoin="round"/>
  </marker>
</defs>

<!-- midia/ -->
<g class="box-purple">
  <rect x="360" y="264" width="300" height="32" rx="6" stroke-width="0.5"/>
  <text class="th" x="510" y="285" text-anchor="middle">midia/</text>
</g>
<line class="connector" x1="400" y1="296" x2="400" y2="312"/>
<g class="box-purple">
  <rect x="380" y="312" width="260" height="26" rx="4" stroke-width="0.5"/>
  <text class="ts" x="510" y="329" text-anchor="middle">Exploração/</text>
</g>
<line class="connector" x1="420" y1="338" x2="420" y2="350"/>
<g class="box-neutral">
  <rect x="400" y="350" width="220" height="22" rx="3" stroke-width="0.5"/>
  <text class="ts" x="510" y="365" text-anchor="middle">01_exploracao_cadunico.ipynb</text>
</g>
<line class="connector" x1="400" y1="338" x2="400" y2="384"/>
<g class="box-neutral">
  <rect x="380" y="384" width="78" height="24" rx="3" stroke-width="0.5"/>
  <text class="ts" x="419" y="400" text-anchor="middle">Análise/</text>
</g>
<g class="box-neutral">
  <rect x="468" y="384" width="90" height="24" rx="3" stroke-width="0.5"/>
  <text class="ts" x="513" y="400" text-anchor="middle">Estruturacao/</text>
</g>

<!-- Seta lê midia -->
<line x1="322" y1="325" x2="378" y2="325" stroke="#aaa" stroke-width="1" stroke-dasharray="3 2" marker-end="url(#arr)"/>
<text class="arrow-label" x="350" y="320" text-anchor="middle">lê</text>

<!-- cruzamentos/ futuro -->
<g class="box-amber">
  <rect x="360" y="428" width="300" height="32" rx="6" stroke-width="0.5"/>
  <text class="th" x="510" y="449" text-anchor="middle">cruzamentos/  ← futuro</text>
</g>
<line class="connector" x1="400" y1="460" x2="400" y2="472"/>
<g class="box-dashed">
  <rect x="380" y="472" width="260" height="22" rx="3" stroke-width="0.5"/>
  <text class="ts" x="510" y="487" text-anchor="middle" fill="#888">sigas_x_cadunico.ipynb …</text>
</g>

<!-- Rodapé -->
<line class="rule-line" x1="20" y1="528" x2="660" y2="528"/>
<text class="th" x="340" y="548" text-anchor="middle" fill="#1a1a1a">Regra fundamental</text>
<text class="ts" x="340" y="566" text-anchor="middle">dados/ cresce com o tempo — uma pasta por competência</text>
<text class="ts" x="340" y="582" text-anchor="middle">notebooks/ não cresce — só o parâmetro COMPETENCIA muda</text>
<text class="ts" x="340" y="600" text-anchor="middle">Nova carga: cria dados/cadunico/01_bruto/2027_12/ — notebook não muda</text>
<text class="ts" x="340" y="620" text-anchor="middle" fill="#aaa">Atlas Social de Hortolândia — SMIDS — 2026</text>
</svg>
